<svg id="Layer_1" enable-background="new 0 0 480 480" height="512" viewBox="0 0 480 480" width="512" xmlns="http://www.w3.org/2000/svg"><path d="m272 86v190c0 13.25-10.75 24-24 24h-190c-13.25 0-24-10.75-24-24v-190c0-13.25 10.75-24 24-24h190c13.25 0 24 10.75 24 24z" fill="#ffaa64"/><path d="m472 169v186c0 13.25-10.75 24-24 24h-18c0 21.54-17.46 39-39 39s-39-17.46-39-39h-151c0 21.54-17.46 39-39 39s-39-17.46-39-39c0 21.54-17.46 39-39 39s-39-17.46-39-39h-13c-13.25 0-24-10.75-24-24v-31c0-13.25 10.75-24 24-24h216c13.25 0 24-10.75 24-24v-107c0-13.25 10.75-24 24-24h152c13.25 0 24 10.75 24 24z" fill="#fe4f60"/><g fill="#42434d"><circle cx="391" cy="379" r="39"/><circle cx="84" cy="379" r="39"/><circle cx="162" cy="379" r="39"/></g><path d="m272 86c0 14.359-11.641 26-26 26h-98c-35.346 0-64 28.654-64 64v98c0 14.359-11.641 26-26 26-13.255 0-24-10.745-24-24v-190c0-13.255 10.745-24 24-24h190c13.255 0 24 10.745 24 24z" fill="#ffbd7b"/><path d="m190 118.45c0 8.84-7.16 16-16 16h-41c-8.84 0-16-7.16-16-16v-56.45h73z" fill="#e8f8fc"/><path d="m190 112v6.45c0 8.84-7.16 16-16 16h-41c-8.33 0-15.17-6.36-15.93-14.49 9.16-5.08 19.71-7.96 30.93-7.96z" fill="#d6f4fc"/><path d="m448.227 172h-70.227c-43.63 0-79 35.37-79 79v52c0 13.255-10.745 24-24 24h-216c-13.255 0-24 10.745-24 24v4.227c0 17.286-26.024 18.361-26.964 1.1-.059-1.083-.036-33.297-.036-32.327 0-13.255 10.745-24 24-24h216c13.255 0 24-10.745 24-24v-107c0-13.255 10.745-24 24-24h152c18.901 0 17.708 27 .227 27z" fill="#ff6d7a"/><path d="m472 169v97h-110.75c-18.36 0-33.25-14.89-33.25-33.25v-87.75h120c13.25 0 24 10.75 24 24z" fill="#d6f4fc"/><path d="m108.363 348.543c4.742 3.798 1.915 11.439-4.16 11.418-20.583-.071-39.298 16.477-39.203 39.207.026 6.116-7.593 9.007-11.422 4.239-19.849-24.71-3.195-61.524 28.097-63.339 10.115-.587 19.455 2.682 26.688 8.475z" fill="#4d4e59"/><path d="m186.363 348.543c4.742 3.798 1.915 11.439-4.16 11.418-20.582-.071-39.297 16.477-39.202 39.207.026 6.116-7.593 9.007-11.422 4.239-19.849-24.71-3.195-61.524 28.097-63.339 10.114-.587 19.454 2.682 26.687 8.475z" fill="#4d4e59"/><path d="m415.363 348.543c4.742 3.798 1.915 11.439-4.16 11.418-20.582-.071-39.297 16.477-39.202 39.207.026 6.116-7.592 9.007-11.422 4.239-19.849-24.71-3.195-61.524 28.097-63.339 10.114-.587 19.454 2.682 26.687 8.475z" fill="#4d4e59"/><path d="m448.23 172h-70.23c-18.98 0-36.38 6.69-50 17.84v-44.84c121.158 0 120.497-.029 121.33.04 17.26.94 16.18 26.96-1.1 26.96z" fill="#e8f8fc"/><path d="m111 247c0 4.418-3.582 8-8 8h-27c-4.418 0-8-3.582-8-8s3.582-8 8-8h27c4.418 0 8 3.582 8 8zm369-78v186c0 17.645-14.355 32-32 32h-10.695c-3.81 22.117-23.117 39-46.305 39-25.916 0-47-21.084-47-47s21.084-47 47-47c23.188 0 42.495 16.883 46.305 39h10.695c8.822 0 16-7.178 16-16v-81h-102.75c-22.745 0-41.25-18.505-41.25-41.25v-55.75c0-4.418 3.582-8 8-8s8 3.582 8 8v55.75c0 13.923 11.327 25.25 25.25 25.25h102.75v-89c0-8.822-7.178-16-16-16h-152c-8.822 0-16 7.178-16 16v107c0 17.645-14.355 32-32 32-23.713 0-207.806 0-216 0-8.822 0-16 7.178-16 16v31c0 4.418-3.582 8-8 8s-8-3.582-8-8v-31c0-17.085 13.459-31.085 30.33-31.956-2.747-4.721-4.33-10.2-4.33-16.044v-190c0-17.645 14.355-32 32-32h190c17.645 0 32 14.355 32 32v26c0 4.418-3.582 8-8 8s-8-3.582-8-8v-26c0-8.822-7.178-16-16-16h-123v48.449c0 4.411 3.589 8 8 8h41c4.411 0 8-3.589 8-8v-25.449c0-4.418 3.582-8 8-8s8 3.582 8 8v25.449c0 13.234-10.767 24-24 24h-41c-13.233 0-24-10.766-24-24v-48.449h-51c-8.822 0-16 7.178-16 16v190c0 8.822 7.178 16 16 16h190c8.822 0 16-7.178 16-16v-107c0-17.645 14.355-32 32-32h152c17.645 0 32 14.355 32 32zm-58 210c0-17.093-13.906-31-31-31s-31 13.907-31 31 13.906 31 31 31 31-13.907 31-31zm-213 0c0 25.916-21.084 47-47 47-16.223 0-30.55-8.262-39-20.799-8.45 12.537-22.777 20.799-39 20.799-25.916 0-47-21.084-47-47s21.084-47 47-47c16.223 0 30.55 8.262 39 20.799 8.45-12.537 22.777-20.799 39-20.799 25.916 0 47 21.084 47 47zm-94 0c0-17.093-13.906-31-31-31s-31 13.907-31 31 13.906 31 31 31 31-13.907 31-31zm78 0c0-17.093-13.906-31-31-31s-31 13.907-31 31 13.906 31 31 31 31-13.907 31-31zm126-8h-85c-4.418 0-8 3.582-8 8s3.582 8 8 8h85c4.418 0 8-3.582 8-8s-3.582-8-8-8z"/></svg>