<svg height="512" viewBox="0 0 128 128" width="512" xmlns="http://www.w3.org/2000/svg"><g><path d="m11.207 31.485h105.586v90.209h-105.586z" fill="#f2da30"/><path d="m6.306 6.306h115.387v25.179h-115.387z" fill="#3ea2e5"/><circle cx="64" cy="76.589" fill="#dfeef4" r="32.298"/><path d="m48.841 92.454h16.827a13.491 13.491 0 0 0 13.491-13.491 13.492 13.492 0 0 0 -13.491-13.492h-7.25v-6.187l-9.577 9.578 9.577 9.577v-6.187h7.25a6.711 6.711 0 0 1 6.71 6.711 6.71 6.71 0 0 1 -6.71 6.71h-16.827z" fill="#f45858"/><g><path d="m25.984 8.057h4.473a1.75 1.75 0 0 0 0-3.5h-4.473a1.75 1.75 0 0 0 0 3.5z"/><path d="m121.693 4.557h-82.58a1.75 1.75 0 0 0 0 3.5h80.83v21.678h-111.886v-21.678h9.689a1.75 1.75 0 0 0 0-3.5h-11.439a1.749 1.749 0 0 0 -1.75 1.75v25.178a1.749 1.749 0 0 0 1.75 1.75h3.15v88.458a1.749 1.749 0 0 0 1.75 1.75h105.586a1.749 1.749 0 0 0 1.75-1.75v-14.918a1.75 1.75 0 0 0 -3.5 0v13.168h-102.086v-86.708h102.086v65.865a1.75 1.75 0 1 0 3.5 0v-65.865h3.15a1.749 1.749 0 0 0 1.75-1.75v-25.178a1.749 1.749 0 0 0 -1.75-1.75z"/><path d="m94.477 16.1a1.75 1.75 0 0 0 0-3.5h-2.765a1.75 1.75 0 0 0 0 3.5z"/><path d="m112.066 16.1a1.75 1.75 0 0 0 0-3.5h-10.691a1.75 1.75 0 0 0 0 3.5z"/><path d="m29.952 76.589a34.048 34.048 0 1 0 34.048-34.048 34.087 34.087 0 0 0 -34.048 34.048zm64.6 0a30.548 30.548 0 1 1 -30.552-30.548 30.583 30.583 0 0 1 30.548 30.548z"/><path d="m60.168 59.284a1.749 1.749 0 0 0 -2.987-1.237l-9.581 9.578a1.749 1.749 0 0 0 0 2.475l9.577 9.577a1.749 1.749 0 0 0 2.987-1.238v-4.439h5.5a4.961 4.961 0 0 1 0 9.921h-16.823a1.749 1.749 0 0 0 -1.75 1.75v6.781a1.749 1.749 0 0 0 1.75 1.75h16.827a15.242 15.242 0 0 0 0-30.483h-5.5zm5.5 7.937a11.742 11.742 0 0 1 0 23.483h-15.077v-3.281h15.077a8.461 8.461 0 0 0 0-16.921h-7.25a1.749 1.749 0 0 0 -1.75 1.75v1.963l-5.353-5.353 5.353-5.352v1.961a1.749 1.749 0 0 0 1.75 1.75z"/></g></g></svg>